<?xml version="1.0"?><svg id="Layer_1" xmlns="http://www.w3.org/2000/svg" viewBox="0 0 500 155"><defs></defs><path class="cls-1" d="M204.45,41.7l-17.5-6.35c-3.28-1.2-5.64-2.7-7.07-4.5-1.44-1.8-2.16-3.98-2.16-6.53,0-3.84,1.44-6.99,4.32-9.47,2.88-2.48,7.15-3.72,12.83-3.72,6.23,0,11.25,1.96,15.05,5.87,3.8,3.92,6.25,9.87,7.37,17.87h1.8l-.96-20.62c-2.88-2.56-6.34-4.54-10.37-5.93-4.04-1.4-8.37-2.1-13.01-2.1-5.84,0-10.71.94-14.63,2.82-3.92,1.88-6.83,4.34-8.75,7.37-1.92,3.04-2.88,6.31-2.88,9.83,0,4.8,1.22,8.65,3.66,11.57,2.44,2.92,6.21,5.26,11.33,7.01l16.91,5.99c4.08,1.44,7.03,3.34,8.87,5.7,1.84,2.36,2.76,5.26,2.76,8.69,0,4.32-1.48,7.79-4.44,10.43-2.96,2.64-7.16,3.96-12.59,3.96-5.12,0-9.63-1.28-13.55-3.84-3.92-2.56-7.01-6.15-9.29-10.79-2.28-4.64-3.5-10.03-3.66-16.19h-1.92v23.62c2.4,3.52,5.95,6.43,10.67,8.75,4.72,2.32,10.43,3.48,17.15,3.48,8.23,0,14.79-1.76,19.66-5.28,4.87-3.52,7.31-9.11,7.31-16.79,0-5.28-1.34-9.55-4.02-12.83-2.68-3.28-6.97-5.95-12.89-8.03Z"></path><path class="cls-1" d="M284.18,7.41h-8.75v2.28c2.32,0,4.16.48,5.51,1.44,1.36.96,2.04,2.72,2.04,5.28v22.3h-35.85v-22.3c0-2.56.68-4.32,2.04-5.28,1.36-.96,3.2-1.44,5.51-1.44v-2.28h-24.7v2.28c2.32,0,4.16.48,5.52,1.44,1.36.96,2.04,2.72,2.04,5.28v58.39c0,2.56-.68,4.32-2.04,5.28-1.36.96-3.2,1.44-5.52,1.44v2.28h24.7v-2.28c-2.32,0-4.16-.48-5.51-1.44-1.36-.96-2.04-2.72-2.04-5.28v-30.45h35.85v30.45c0,2.56-.68,4.32-2.04,5.28-1.36.96-3.2,1.44-5.51,1.44v2.28h24.7v-2.28c-2.32,0-4.16-.48-5.52-1.44-1.36-.96-2.04-2.72-2.04-5.28V16.4c0-2.56.68-4.32,2.04-5.28,1.36-.96,3.2-1.44,5.52-1.44v-2.28h-15.95Z"></path><path class="cls-1" d="M321.47,7.41h-9.83v2.28c2.64,0,4.69.48,6.17,1.44,1.48.96,2.22,2.72,2.22,5.28v58.39c0,2.56-.74,4.32-2.22,5.28s-3.54,1.44-6.17,1.44v2.28h26.38v-2.28c-2.64,0-4.7-.48-6.18-1.44-1.48-.96-2.22-2.72-2.22-5.28V16.4c0-2.56.74-4.32,2.22-5.28,1.48-.96,3.54-1.44,6.18-1.44v-2.28h-16.55Z"></path><path class="cls-1" d="M409.71,7.41h-12.23v2.28c3.36,0,5.95.48,7.79,1.44,1.84.96,2.76,2.72,2.76,5.28v59.75L369.18,7.41h-19.78v2.28c2.32,0,4.16.48,5.52,1.44,1.36.96,2.04,2.72,2.04,5.28v58.39c0,2.56-.68,4.32-2.04,5.28-1.36.96-3.2,1.44-5.52,1.44v2.28h23.86v-2.28c-3.12,0-5.51-.48-7.19-1.44s-2.52-2.72-2.52-5.28V15.68l38.49,68.1h20.14v-2.28c-2.32,0-4.16-.48-5.52-1.44-1.36-.96-2.04-2.72-2.04-5.28V16.4c0-2.56.68-4.32,2.04-5.28,1.36-.96,3.2-1.44,5.52-1.44v-2.28h-12.47Z"></path><path class="cls-1" d="M491.36,67.12c-.96,3.36-2.22,6.04-3.78,8.03-1.56,2-3.62,3-6.18,3h-32.37v-32.01h24.58c2.56,0,4.32.54,5.27,1.62.96,1.08,1.44,2.54,1.44,4.38h2.28v-17.39h-2.28c0,1.84-.48,3.3-1.44,4.38-.96,1.08-2.72,1.62-5.27,1.62h-24.58V13.04h32.13c2.48,0,4.27.96,5.4,2.88,1.12,1.92,1.96,4.52,2.52,7.79l2.16-.36-1.68-11.99-.6-3.96h-57.07v2.28c2.32,0,4.16.48,5.52,1.44,1.36.96,2.04,2.72,2.04,5.28v58.39c0,2.56-.68,4.32-2.04,5.28-1.36.96-3.2,1.44-5.52,1.44v2.28h56.95l1.2-3.96,3.48-11.99-2.16-.72Z"></path><path class="cls-2" d="M182.66,150.29h-16.14v-42.84h16.14c6.35,0,11.33,1.99,14.95,5.98,3.62,3.99,5.43,9.13,5.43,15.44s-1.81,11.45-5.43,15.44c-3.62,3.99-8.61,5.98-14.95,5.98ZM171.08,146.04h11.58c4.97,0,8.81-1.55,11.51-4.66,2.7-3.11,4.05-7.28,4.05-12.51s-1.35-9.45-4.05-12.54c-2.7-3.09-6.54-4.63-11.51-4.63h-11.58v34.35Z"></path><path class="cls-2" d="M260.89,150.29h-30.17v-42.84h29.52v4.24h-24.96v13.76h21.74v4.18h-21.74v16.4h25.6v4.25Z"></path><path class="cls-2" d="M321.5,150.29h-5.27l-24.7-37.43v37.43h-4.31v-42.84h5.79l24.12,36.53v-36.53h4.37v42.84Z"></path><path class="cls-2" d="M381.59,111.7h-15.05v38.59h-4.57v-38.59h-14.99v-4.24h34.6v4.24Z"></path><path class="cls-2" d="M437.27,150.29h-5.08l-5.21-12.86h-20.39l-5.21,12.86h-4.76l17.75-42.84h5.15l17.75,42.84ZM425.31,133.18l-8.36-21.16-8.62,21.16h16.98Z"></path><path class="cls-2" d="M491.46,150.29h-29.01v-42.84h4.5v38.59h24.5v4.25Z"></path><path class="cls-2" d="M98.87,141.44c.7.48,1.53.75,2.54.73,4.89-.13,8.59-8.54,10.2-12.31,2.37-5.55,3.72-11.46,5.49-17.21,3.71-12.09,7.59-24.12,11.37-36.18,6.23-19.81,15.09-55.6-11.81-64.63-4.63-1.55-9.62-1.72-14.4-.78-7.4,1.45-14,5.4-20.09,9.68-5.71,4.01-11.9,6.91-18.72,8.49l-9.7,2.24c-3.66.84-7.12,1.96-10.48,3.61-1.84.9-3.47,2.13-4.67,3.72-2.06,2.72-1.75,6.25.65,8.63,1.32,1.31,2.83,2.38,4.51,3.28,6.76,3.59,13.36,5.99,19.87,9.99,5.91,3.63,10.6,8.42,11.77,15.52,1.07,6.47-.8,12.95-5.11,17.88-2.44,2.79-5.21,4.99-8.31,7.03l-7.87,5.16c-2.17,1.43-3.95,3.21-5.54,5.26-1.92,2.51-2.67,5.35-3.06,8.58-1.77-7.38,2.25-13.66,7.93-17.78l6.41-4.65c2.21-1.6,4.23-3.36,5.95-5.46,5.4-6.6,5.59-16.57-1.13-22.45-2.31-2.02-4.82-3.65-7.7-4.79l-9.46-3.76c-5.25-2.09-12.15-4.93-15.37-9.72-3.21-4.79-2.18-11.11,2-14.99,4.47-4.14,9.9-5.47,15.67-6.85l9.95-2.38c6.19-1.48,11.72-4.31,16.88-8l8.07-5.79c8.6-6.17,19.8-9.45,30.35-7.83,11.66,1.79,20.12,10.04,23.44,21.22.42,1.41.75,2.84,1.02,4.28,1.47,8.12.84,16.77-.86,24.81-5.6,26.43-14.38,52.24-23.23,77.72-2.17,6.26-6.38,16.41-14.7,15.33-6.13-.79-9.03-7.92-10.63-13.07-1.7-5.47-2.82-11.22-5.43-16.35-1.82-3.59-4.85-6.89-9-7.54-4.59-.72-8.99,2.01-11.59,5.65-2.65,3.71-3.61,8.35-4.47,12.74-1.02,5.19-1.77,10.79-4.73,15.31-1.18,1.81-2.88,3.52-5.03,3.77-2.72.32-5.11-1.75-6.9-3.83-4.78-5.54-8.22-12.11-11.19-18.8-7.21-16.2-12.01-33.48-14.17-51.08,5.31,10.05,8.46,21.06,12.12,31.82,2.13,6.26,4.46,12.47,7.48,18.35,1.71,3.33,9.2,19.86,14.18,12.33,4.86-7.35,4.12-16.92,9.83-23.85,3.75-4.55,9.68-6.94,15.52-5.91,14.52,2.56,14.58,19.66,20,30.19.56,1.09,1.25,2.07,2.17,2.7Z"></path><path class="cls-2" d="M77.67,44.51l8.73-.02c-.69,1.2-1.27,2.38-1.27,3.89v48.26c12.89.1,24.06-3.77,28.83-16.49,2.7-7.64,2.52-16.07-.57-23.59-4.18-10.21-13.4-14.52-23.9-15.31-5.34-.4-10.5-.38-15.88-.1l-16.71.86,4.01-1.06c7.9-1.73,15.81-2.74,23.94-2.86,8.54-.12,17.88,1.11,25.06,5.88,4.68,3.11,8.19,7.32,10.19,12.61,5.66,14.97.53,31.33-14.24,38.64-8.97,4.44-20.5,5.01-30.32,4.67,3.9-2.82,3.47-7.33,3.65-11.58l-.06-15.97-.12-23.81c-.17-1.48-.43-2.54-1.35-4.02Z"></path><path class="cls-2" d="M32.11,10.89c-13.34,4.43-19.59,17.5-19.08,30.94.38,9.93,3.96,19.37,9.91,27.29,7.19,9.56,17.28,16.35,27.86,21.66l6.82,3.46c-12.14-2.36-23.42-7.64-32.84-15.48-7.52-6.26-12.99-14.3-16.09-23.57-1.56-4.67-2.21-9.32-2.22-14.26,0-7.27,1.75-14.33,5.5-20.48,6.2-10.17,17.07-16.03,28.98-15.72,5.49.14,10.64,1.26,15.7,3.43l9.94,4.27c4.22,1.81,8.65,2.13,13.16,1.51-2.07,1.15-4.15,1.53-6.35,1.73-9.78.69-15.52-4.07-25.53-5.71-5.34-.88-10.65-.76-15.76.94Z"></path></svg>