<svg width="134" height="145" viewBox="0 0 134 145" fill="none" xmlns="http://www.w3.org/2000/svg">
<g clip-path="url(#clip0_14258_5172)">
<path d="M92.3898 136.73C93.0898 137.21 93.9198 137.48 94.9298 137.46C99.8198 137.33 103.52 128.92 105.13 125.15C107.5 119.6 108.85 113.69 110.62 107.94C114.33 95.8499 118.21 83.8199 121.99 71.7599C128.22 51.9499 137.08 16.1599 110.18 7.12987C105.55 5.57987 100.56 5.40987 95.7798 6.34987C88.3798 7.79987 81.7799 11.7499 75.6898 16.0299C69.9798 20.0399 63.7898 22.9399 56.9698 24.5199L47.2698 26.7599C43.6098 27.5999 40.1498 28.7199 36.7898 30.3699C34.9498 31.2699 33.3198 32.4999 32.1198 34.0899C30.0598 36.8099 30.3698 40.3399 32.7698 42.7199C34.0898 44.0299 35.5998 45.0999 37.2798 45.9999C44.0398 49.5899 50.6398 51.9899 57.1498 55.9899C63.0598 59.6199 67.7498 64.4099 68.9198 71.5099C69.9898 77.9799 68.1198 84.4599 63.8098 89.3899C61.3698 92.1799 58.5998 94.3799 55.4998 96.4199L47.6298 101.58C45.4598 103.01 43.6798 104.79 42.0898 106.84C40.1698 109.35 39.4198 112.19 39.0298 115.42C37.2598 108.04 41.2798 101.76 46.9598 97.6399L53.3698 92.9899C55.5798 91.3899 57.5998 89.6299 59.3198 87.5299C64.7198 80.9299 64.9098 70.9599 58.1898 65.0799C55.8798 63.0599 53.3698 61.4299 50.4898 60.2899L41.0298 56.5299C35.7798 54.4399 28.8798 51.5999 25.6598 46.8099C22.4498 42.0199 23.4798 35.6999 27.6598 31.8199C32.1298 27.6799 37.5598 26.3499 43.3298 24.9699L53.2798 22.5899C59.4698 21.1099 64.9998 18.2799 70.1598 14.5899L78.2298 8.79987C86.7998 2.59987 98.0098 -0.690128 108.56 0.929872C120.22 2.71987 128.68 10.9699 132 22.1499C132.42 23.5599 132.75 24.9899 133.02 26.4299C134.49 34.5499 133.86 43.1999 132.16 51.2399C126.56 77.6699 117.78 103.48 108.93 128.96C106.76 135.22 102.55 145.37 94.2298 144.29C88.0998 143.5 85.1998 136.37 83.5998 131.22C81.8998 125.75 80.7798 120 78.1698 114.87C76.3498 111.28 73.3198 107.98 69.1698 107.33C64.5798 106.61 60.1798 109.34 57.5798 112.98C54.9298 116.69 53.9698 121.33 53.1098 125.72C52.0898 130.91 51.3398 136.51 48.3798 141.03C47.1998 142.84 45.4998 144.55 43.3498 144.8C40.6298 145.12 38.2398 143.05 36.4498 140.97C31.6698 135.43 28.2298 128.86 25.2598 122.17C18.0498 105.97 13.2498 88.6899 11.0898 71.0899C16.3998 81.1399 19.5498 92.1499 23.2098 102.91C25.3398 109.17 27.6698 115.38 30.6898 121.26C32.3998 124.59 39.8898 141.12 44.8698 133.59C49.7298 126.24 48.9898 116.67 54.6998 109.74C58.4498 105.19 64.3798 102.8 70.2198 103.83C84.7398 106.39 84.7998 123.49 90.2198 134.02C90.7798 135.11 91.4698 136.09 92.3898 136.72V136.73Z" fill="#D6B98B"></path>
<path d="M71.1899 39.7999L79.9199 39.7799C79.2299 40.9799 78.6499 42.1599 78.6499 43.6699V91.9299C91.5399 92.0299 102.71 88.1599 107.48 75.4399C110.18 67.7999 110 59.3699 106.91 51.8499C102.73 41.6399 93.5099 37.3299 83.0099 36.5399C77.6699 36.1399 72.5099 36.1599 67.1299 36.4399L50.4199 37.2999L54.4299 36.2399C62.3299 34.5099 70.2399 33.4999 78.3699 33.3799C86.9099 33.2599 96.2499 34.4899 103.43 39.2599C108.11 42.3699 111.62 46.5799 113.62 51.8699C119.28 66.8399 114.15 83.1999 99.3799 90.5099C90.4099 94.9499 78.8799 95.5199 69.0599 95.1799C72.9599 92.3599 72.5299 87.8499 72.7099 83.5999L72.6499 67.6299L72.5299 43.8199C72.3599 42.3399 72.0999 41.2799 71.1799 39.7999H71.1899Z" fill="#D6B98B"></path>
<path d="M25.63 6.17976C12.29 10.5998 6.03 23.6798 6.54 37.1098C6.92 47.0398 10.5 56.4798 16.45 64.3998C23.64 73.9598 33.73 80.7498 44.31 86.0598L51.13 89.5198C38.99 87.1598 27.71 81.8798 18.29 74.0398C10.77 67.7798 5.3 59.7398 2.2 50.4698C0.66 45.7998 0 41.1498 0 36.2098C0 28.9398 1.75 21.8798 5.5 15.7298C11.69 5.55976 22.57 -0.300242 34.47 0.00975806C39.96 0.149758 45.11 1.26976 50.17 3.43976L60.11 7.70976C64.33 9.51976 68.76 9.83976 73.27 9.21976C71.2 10.3698 69.12 10.7498 66.92 10.9498C57.14 11.6398 51.4 6.87976 41.39 5.23976C36.05 4.35976 30.74 4.47976 25.63 6.17976Z" fill="#D6B98B"></path>
</g>
<defs>
<clipPath id="clip0_14258_5172">
<rect width="133.83" height="144.83" fill="white"></rect>
</clipPath>
</defs>
</svg>